<svg xmlns="http://www.w3.org/2000/svg" viewBox="0 0 415.89 423.09"><defs><style>.cls-1{fill:#fff;}.cls-2{fill:#032b91;}.cls-3{fill:#1488db;}</style></defs><g id="Layer_2" data-name="Layer 2"><g id="Layer_1-2" data-name="Layer 1"><polygon class="cls-1" points="207.95 360.17 108.97 417.32 5 357.29 5 237.23 103.97 180.09 103.97 65.81 207.95 5.77 311.92 65.81 311.92 180.09 410.89 237.23 410.89 357.29 306.92 417.32 207.95 360.17"/><path class="cls-1" d="M208,11.55l99,57.14V183l99,57.15V354.4l-99,57.15L208,354.4l-99,57.15L10,354.4V240.12L109,183V68.69l99-57.14M208,0l-5,2.89L104,60l-5,2.89V177.2L5,231.46l-5,2.89V360.17l5,2.89,99,57.15,5,2.88,5-2.88L208,366l94,54.26,5,2.88,5-2.88,99-57.15,5-2.89V234.35l-5-2.89-94-54.26V62.92l-5-2.89L213,2.89,208,0Z"/><polygon class="cls-1" points="306.92 182.97 306.92 297.26 207.95 354.4 108.97 297.26 108.97 182.97 207.95 125.83 306.92 182.97"/><polygon class="cls-2" points="207.95 11.55 207.95 125.83 108.97 182.97 108.97 68.69 207.95 11.55"/><polygon class="cls-3" points="306.92 68.69 306.92 182.97 207.95 125.83 207.95 11.55 306.92 68.69"/><polygon class="cls-3" points="108.97 182.97 108.97 297.26 10 354.4 10 240.12 108.97 182.97"/><polygon class="cls-2" points="207.95 354.4 108.97 411.55 10 354.4 108.97 297.26 207.95 354.4"/><polygon class="cls-2" points="405.89 240.12 405.89 354.4 306.92 297.26 306.92 182.97 405.89 240.12"/><polygon class="cls-3" points="405.89 354.4 306.92 411.55 207.95 354.4 306.92 297.26 405.89 354.4"/><path class="cls-2" d="M143.43,183h28.11a79.94,79.94,0,0,1,12.45.71,17.73,17.73,0,0,1,12.74,8.9,16.29,16.29,0,0,1,2.16,8.33A16.92,16.92,0,0,1,189,216.38a18.44,18.44,0,0,1,9.88,6.46,17.35,17.35,0,0,1,3.45,10.75,21.35,21.35,0,0,1-2.23,9.45,18.89,18.89,0,0,1-6.09,7.34,19.84,19.84,0,0,1-9.52,3.38q-3.56.39-17.13.49H143.43Zm14.2,11.87v16.48h9.31q8.3,0,10.31-.24a9.4,9.4,0,0,0,5.74-2.56,7.57,7.57,0,0,0,2.08-5.56,7.9,7.9,0,0,0-1.8-5.38,8.09,8.09,0,0,0-5.34-2.5q-2.12-.24-12.14-.24Zm0,28.34v19.06h13.15a63.64,63.64,0,0,0,9.74-.44,8.72,8.72,0,0,0,5.15-2.84,8.83,8.83,0,0,0,2-6.05,9.42,9.42,0,0,0-1.53-5.45,8.66,8.66,0,0,0-4.44-3.26q-2.9-1-12.59-1Z"/><path class="cls-2" d="M214.53,254.25V183h14.2v31.65L257.42,183h19.09L250,210.74,278,254.25H259.58L240.24,220.8l-11.51,11.91v21.54Z"/><path class="cls-3" d="M151.34,296.81V274.66h-7.91v-4.51h21.19v4.51h-7.89v22.15Z"/><path class="cls-3" d="M168.09,296.81V270.15h8.64a31.06,31.06,0,0,1,6.4.4,7,7,0,0,1,3.84,2.61,8.27,8.27,0,0,1,1.54,5.19,8.67,8.67,0,0,1-.89,4.13,7.28,7.28,0,0,1-2.26,2.62,7.9,7.9,0,0,1-2.79,1.27,31.29,31.29,0,0,1-5.59.38h-3.51v10.06Zm5.38-22.15v7.56h2.95a13.93,13.93,0,0,0,4.26-.42,3.54,3.54,0,0,0,1.68-1.31,3.61,3.61,0,0,0,.61-2.07,3.44,3.44,0,0,0-.86-2.4,3.73,3.73,0,0,0-2.16-1.18,26.15,26.15,0,0,0-3.87-.18Z"/><path class="cls-3" d="M188.1,296.81V291.7h5.11v5.11Z"/><path class="cls-3" d="M198.5,296.81V270.15h5.38v10.49h10.55V270.15h5.38v26.66h-5.38V285.15H203.88v11.66Z"/><path class="cls-3" d="M242.44,287l5.21,1.66a11.69,11.69,0,0,1-4,6.48,12.55,12.55,0,0,1-15.81-1.51q-3.42-3.63-3.42-9.92,0-6.65,3.44-10.34a11.79,11.79,0,0,1,9-3.68,11.09,11.09,0,0,1,7.94,2.89,10.51,10.51,0,0,1,2.73,4.91l-5.33,1.28a5.5,5.5,0,0,0-5.62-4.48,6.07,6.07,0,0,0-4.81,2.13q-1.84,2.13-1.84,6.89c0,3.37.6,5.77,1.82,7.2a5.89,5.89,0,0,0,4.72,2.15,5.41,5.41,0,0,0,3.7-1.36A7.94,7.94,0,0,0,242.44,287Z"/><path class="cls-3" d="M252.2,296.81V270.15h8.06l4.83,18.18,4.79-18.18H278v26.66h-5v-21l-5.29,21h-5.18l-5.28-21v21Z"/></g></g></svg>